<svg height="38" viewBox="0 0 271 38" width="271" xmlns="http://www.w3.org/2000/svg"><path d="m0 0h271v38h-271z" fill="none"/><path d="m1.512 0h3.912v-7.176c0-2.04-.216-5.256-.216-5.256h.048s1.392 2.976 2.472 4.776l4.656 7.656h4.2v-17.856h-3.912v7.224c0 2.04.216 5.232.216 5.232h-.048s-1.392-2.9-2.448-4.7l-4.7-7.752h-4.18zm23.952.384c3.288 0 5.376-1.728 6.024-3.984h-3.648a2.378 2.378 0 0 1 -2.328 1.248c-1.824 0-2.856-1.152-3.1-3.072h9.312a8.131 8.131 0 0 0 -2.06-6.076 6.263 6.263 0 0 0 -4.392-1.632 6.437 6.437 0 0 0 -6.552 6.772 6.424 6.424 0 0 0 6.744 6.744zm-.192-10.848c1.488 0 2.5 1.08 2.616 2.856h-5.448c.24-1.752 1.104-2.856 2.832-2.856zm7.368.1h1.92v7.152c0 2.592 1.608 3.36 3.984 3.36a12.391 12.391 0 0 0 2.184-.192v-2.812h-.192c-.24.024-.624.048-.864.048-.888 0-1.416-.264-1.416-1.224v-6.336h2.5v-2.4h-2.5v-4.08h-3.7v4.08h-1.916zm13.416 10.364h3.5l1.392-5.208c.384-1.464.84-3.912.84-3.912h.048s.408 2.472.792 3.912l1.348 5.208h3.552l3.96-12.768h-3.72l-1.368 4.968a37.6 37.6 0 0 0 -.768 3.984h-.048s-.408-2.5-.84-4.032l-1.344-4.92h-3.192l-1.3 4.92c-.408 1.536-.808 4.008-.808 4.008h-.048s-.34-2.448-.752-3.96l-1.34-4.968h-3.84zm22.56.408a6.49 6.49 0 0 0 6.72-6.768 6.477 6.477 0 0 0 -6.72-6.768 6.5 6.5 0 0 0 -6.768 6.768 6.515 6.515 0 0 0 6.768 6.768zm-.024-2.736c-1.92 0-2.928-1.632-2.928-4.032 0-2.424 1.008-4.08 2.928-4.08 1.872 0 2.928 1.656 2.928 4.08 0 2.4-1.056 4.032-2.928 4.032zm12.264-10.44h-3.624v12.768h3.768v-5.928c0-2.5 1.344-3.768 3.384-3.744a4.419 4.419 0 0 1 .792.072h.1v-3.288a2.2 2.2 0 0 0 -.792-.1 3.659 3.659 0 0 0 -3.552 2.5h-.072zm14.544 12.768h4.368l-5.088-8.04 4.56-4.728h-4.368l-4.2 4.584c.048-.816.12-2.232.12-4.1v-5.568h-3.72v17.852h3.72v-4.248l1.272-1.32zm11.88 0h3.912v-7.176c0-2.04-.216-5.256-.216-5.256h.048s1.392 2.976 2.472 4.776l4.656 7.656h4.2v-17.856h-3.912v7.224c0 2.04.216 5.232.216 5.232h-.048s-1.392-2.9-2.448-4.7l-4.7-7.752h-4.18zm23.952.384c3.288 0 5.376-1.728 6.024-3.984h-3.648a2.378 2.378 0 0 1 -2.328 1.248c-1.824 0-2.856-1.152-3.1-3.072h9.32a8.131 8.131 0 0 0 -2.064-6.072 6.263 6.263 0 0 0 -4.392-1.632 6.437 6.437 0 0 0 -6.552 6.768 6.424 6.424 0 0 0 6.74 6.744zm-.192-10.848c1.488 0 2.5 1.08 2.616 2.856h-5.448c.24-1.752 1.104-2.856 2.832-2.856zm20.232 10.464v-12.768h-3.72v7.224a2.466 2.466 0 0 1 -2.452 2.736c-1.344 0-2.04-.816-2.04-2.232v-7.728h-3.76v8.448c0 2.808 1.584 4.68 4.488 4.68a4.152 4.152 0 0 0 3.84-2.184h.072v1.824zm6.12-12.768h-3.624v12.768h3.768v-5.928c0-2.5 1.344-3.768 3.384-3.744a4.419 4.419 0 0 1 .792.072h.1v-3.288a2.2 2.2 0 0 0 -.792-.1 3.659 3.659 0 0 0 -3.552 2.5h-.072zm12.144 13.176a6.49 6.49 0 0 0 6.72-6.768 6.477 6.477 0 0 0 -6.72-6.768 6.5 6.5 0 0 0 -6.768 6.768 6.515 6.515 0 0 0 6.768 6.768zm-.024-2.736c-1.92 0-2.928-1.632-2.928-4.032 0-2.424 1.008-4.08 2.928-4.08 1.872 0 2.928 1.656 2.928 4.08 0 2.4-1.056 4.032-2.928 4.032zm13.944 2.736c3.312 0 5.76-1.44 5.76-4.2 0-3.216-2.592-3.816-4.872-4.224-1.752-.312-3.144-.456-3.144-1.416 0-.816.744-1.3 1.9-1.3q1.8 0 2.16 1.368h3.5c-.336-2.232-2.112-3.768-5.664-3.768-3 0-5.376 1.368-5.376 3.984 0 2.976 2.3 3.552 4.584 3.984 1.776.336 3.288.48 3.288 1.632 0 .912-.768 1.464-2.112 1.464a2.312 2.312 0 0 1 -2.592-1.872h-3.552c.192 2.572 2.424 4.348 6.12 4.348zm13.752 0c3.552 0 5.856-2.256 5.976-5.16h-3.624a2.294 2.294 0 0 1 -2.4 2.3c-1.9 0-2.856-1.584-2.856-3.912 0-2.4.96-3.96 2.856-3.96a2.219 2.219 0 0 1 2.28 1.92h3.648c-.456-2.784-2.568-4.728-5.976-4.728a6.427 6.427 0 0 0 -6.624 6.768 6.476 6.476 0 0 0 6.72 6.772zm7.7-14.976h3.816v-3.288h-3.816zm.028 14.568h3.764v-12.768h-3.768zm12.408.384c3.288 0 5.376-1.728 6.024-3.984h-3.648a2.378 2.378 0 0 1 -2.328 1.248c-1.824 0-2.856-1.152-3.1-3.072h9.312a8.131 8.131 0 0 0 -2.064-6.072 6.263 6.263 0 0 0 -4.392-1.632 6.437 6.437 0 0 0 -6.548 6.768 6.424 6.424 0 0 0 6.744 6.744zm-.192-10.848c1.488 0 2.5 1.08 2.616 2.856h-5.448c.24-1.752 1.104-2.856 2.832-2.856zm12-2.3h-3.652v12.764h3.768v-7.2a2.53 2.53 0 0 1 2.448-2.808 2.06 2.06 0 0 1 2.136 2.328v7.68h3.748v-8.4c0-2.856-1.632-4.728-4.44-4.728a4.145 4.145 0 0 0 -3.936 2.3h-.072zm16.968 13.172c3.552 0 5.856-2.256 5.976-5.16h-3.624a2.294 2.294 0 0 1 -2.4 2.3c-1.9 0-2.856-1.584-2.856-3.912 0-2.4.96-3.96 2.856-3.96a2.219 2.219 0 0 1 2.28 1.92h3.648c-.456-2.784-2.568-4.728-5.976-4.728a6.427 6.427 0 0 0 -6.624 6.772 6.476 6.476 0 0 0 6.72 6.768zm13.872-.024c3.288 0 5.376-1.728 6.024-3.984h-3.648a2.378 2.378 0 0 1 -2.328 1.248c-1.824 0-2.856-1.152-3.1-3.072h9.312a8.131 8.131 0 0 0 -2.064-6.072 6.263 6.263 0 0 0 -4.392-1.632 6.437 6.437 0 0 0 -6.552 6.768 6.424 6.424 0 0 0 6.748 6.744zm-.192-10.848c1.488 0 2.5 1.08 2.616 2.856h-5.448c.24-1.752 1.104-2.856 2.832-2.856z" transform="translate(2 28)"/></svg>