<svg height="61.3" viewBox="0 0 227.67 61.3" width="227.67" xmlns="http://www.w3.org/2000/svg"><g transform="translate(.4 -26.7)"><path d="m32.2 88h-3.8v-49.8h3.8z"/><path d="m22.7 26.7h3.8v47.9h-3.8z"/><path d="m3.4 74.6h-3.8v-36.4h3.8z"/><path d="m5.4 38.2h3.8v36.4h-3.8z"/><path d="m11.2 38.2h3.8v36.4h-3.8z"/><path d="m20.7 74.6h-3.7v-36.4h3.8v36.4z"/><path d="m38 74.6h-3.8v-36.4h3.8z"/></g><g transform="translate(-44.93 -.028)"><path d="m213.3 20.6h6.7a9.191 9.191 0 0 1 3.3.6 6.094 6.094 0 0 1 2.4 1.8 7.2 7.2 0 0 1 1.5 2.7 10.236 10.236 0 0 1 .5 3.5 13.448 13.448 0 0 1 -.5 3.5 7.2 7.2 0 0 1 -1.5 2.7 6.193 6.193 0 0 1 -2.5 1.7 10.158 10.158 0 0 1 -3.4.6h-6.6zm6.3 14.4a4.627 4.627 0 0 0 3.7-1.5 6.288 6.288 0 0 0 1.2-4.2 9.863 9.863 0 0 0 -.3-2.4 6.632 6.632 0 0 0 -.9-1.9 4.427 4.427 0 0 0 -1.5-1.2 5.381 5.381 0 0 0 -2.2-.4h-3.2v11.6zm9.4-14.4h3v2.8h-3zm0 4.8h2.9v12.3h-2.9zm7.4 2.2a3.951 3.951 0 0 1 3.6-2.4 2.2 2.2 0 0 1 .8.1v2.6h-.1a2.2 2.2 0 0 0 -.8-.1 3.406 3.406 0 0 0 -2.4.9 3.775 3.775 0 0 0 -1 2.7v6.2h-2.9v-12.2h2.8zm10.6 10.4a7.512 7.512 0 0 1 -2.6-.5 6.606 6.606 0 0 1 -2-1.4 5.488 5.488 0 0 1 -1.2-2.1 7.267 7.267 0 0 1 -.4-2.5 7.834 7.834 0 0 1 .4-2.6 7.194 7.194 0 0 1 1.2-2.1 5.223 5.223 0 0 1 1.9-1.4 6.963 6.963 0 0 1 2.5-.5 6.722 6.722 0 0 1 2.4.4 4.628 4.628 0 0 1 1.8 1.3 5.64 5.64 0 0 1 1.3 2.4 11 11 0 0 1 .4 3.1h-9.2a5.238 5.238 0 0 0 1 2.6 3.1 3.1 0 0 0 2.4 1 3.287 3.287 0 0 0 1.7-.4 2.94 2.94 0 0 0 1-1.2h2.9a4.128 4.128 0 0 1 -.7 1.5 3.447 3.447 0 0 1 -1.2 1.2 5.988 5.988 0 0 1 -1.6.8 4.477 4.477 0 0 1 -2 .4zm-.1-10.8a2.737 2.737 0 0 0 -2.2.9 4.141 4.141 0 0 0 -.9 2.3h6.1a3.583 3.583 0 0 0 -.9-2.4 2.782 2.782 0 0 0 -2.1-.8zm12.6 10.8a7.512 7.512 0 0 1 -2.6-.5 6.606 6.606 0 0 1 -2-1.4 5.71 5.71 0 0 1 -1.3-2.1 7.267 7.267 0 0 1 -.4-2.5 7.834 7.834 0 0 1 .4-2.6 7.194 7.194 0 0 1 1.2-2.1 5.223 5.223 0 0 1 1.9-1.4 7.512 7.512 0 0 1 2.6-.5 7.613 7.613 0 0 1 2.1.3 5.559 5.559 0 0 1 1.7.9 3.6 3.6 0 0 1 1.1 1.4 6.357 6.357 0 0 1 .6 1.8h-2.9a2.6 2.6 0 0 0 -.9-1.6 2.792 2.792 0 0 0 -1.8-.6 3.194 3.194 0 0 0 -1.4.3 2.189 2.189 0 0 0 -1 .9 3.506 3.506 0 0 0 -.6 1.4 9.852 9.852 0 0 0 -.2 1.7 9.852 9.852 0 0 0 .2 1.7 3.1 3.1 0 0 0 .6 1.3 2.837 2.837 0 0 0 1 .9 3.194 3.194 0 0 0 1.4.3 2.64 2.64 0 0 0 1.9-.7 2.732 2.732 0 0 0 .8-1.9h2.9a4.919 4.919 0 0 1 -.5 2 5.826 5.826 0 0 1 -1.1 1.5 5.854 5.854 0 0 1 -1.7 1 2.635 2.635 0 0 1 -2 .5zm5.8-12.6h1.9v-3.9h2.9v3.9h2.5v2h-2.6v6.9a1.4 1.4 0 0 0 .3.9 1.163 1.163 0 0 0 1 .2h.5c.2 0 .3 0 .4-.1h.1v2.3c-.2 0-.5.1-.9.1s-.7.1-1.1.1a6.6 6.6 0 0 1 -1.4-.1 2.7 2.7 0 0 1 -1.1-.5 2.489 2.489 0 0 1 -.9-2.3v-7.5h-1.9z"/><path d="m117.4 28.7c-.2.5-.3 1.1-.5 1.8s-.3 1.3-.5 1.9c-.2.7-.3 1.4-.5 2.1h-.1l-.5-2.1-.5-1.9c-.2-.7-.3-1.2-.5-1.7l-2.8-8.1h-4.2v17.1h2.9v-10.5a9.15 9.15 0 0 0 -.1-1.7c0-.6-.1-1.3-.1-2 .1.6.3 1.2.4 1.8.1.5.3 1 .4 1.6a11.311 11.311 0 0 1 .4 1.5l3.3 9.4h2.6l3.2-9.4a15.463 15.463 0 0 0 .4-1.5c.1-.6.3-1.1.4-1.6a11.627 11.627 0 0 0 .4-1.8c0 .7-.1 1.3-.1 2 0 .6-.1 1.1-.1 1.7v10.5h3v-17.2h-4.3z"/><path d="m126.7 20.6h3.2v17.1h-3.2z"/><path d="m131.2 23.3h5.4v14.4h3.2v-14.4h5.3v-2.7h-13.9z"/><path d="m163 22.2a5.675 5.675 0 0 0 -1.8-1.2 7.267 7.267 0 0 0 -2.5-.4h-7.4v17.1h3.2v-6.4h4.3a6.722 6.722 0 0 0 2.4-.4 4.185 4.185 0 0 0 1.8-1.1 3.859 3.859 0 0 0 1.1-1.7 5.381 5.381 0 0 0 .4-2.2 5.223 5.223 0 0 0 -.4-2.1 9.062 9.062 0 0 0 -1.1-1.6zm-2.5 5.7a2.928 2.928 0 0 1 -2.2.7h-3.8v-5.4h3.9a2.928 2.928 0 0 1 2.2.7 2.792 2.792 0 0 1 .8 2 3.373 3.373 0 0 1 -.9 2z"/><path d="m172.5 25.3a2.2 2.2 0 0 0 -.8-.1 3.577 3.577 0 0 0 -3.5 2.4h-.1v-2.2h-2.8v12.3h2.9v-6.2a3.394 3.394 0 0 1 1-2.7 3.021 3.021 0 0 1 2.4-.9 2.2 2.2 0 0 1 .8.1h.1z"/><path d="m184.1 29.2a6.983 6.983 0 0 0 -1.3-2.4 5.936 5.936 0 0 0 -1.8-1.3 5.073 5.073 0 0 0 -2.4-.4 6.963 6.963 0 0 0 -2.5.5 5.223 5.223 0 0 0 -1.9 1.4 5.488 5.488 0 0 0 -1.2 2.1 7.457 7.457 0 0 0 -.4 2.6 6.9 6.9 0 0 0 .4 2.5 7.193 7.193 0 0 0 1.2 2.1 5.579 5.579 0 0 0 2 1.4 7.511 7.511 0 0 0 2.6.5 7.613 7.613 0 0 0 2.1-.3 4.812 4.812 0 0 0 1.6-.8 3.447 3.447 0 0 0 1.2-1.2 5.066 5.066 0 0 0 .7-1.5h-2.9a2.335 2.335 0 0 1 -1 1.2 2.543 2.543 0 0 1 -1.7.4 2.8 2.8 0 0 1 -2.4-1 4.608 4.608 0 0 1 -1-2.6h9.2a10.732 10.732 0 0 0 -.5-3.2zm-8.7 1.2a4.3 4.3 0 0 1 .9-2.3 3.017 3.017 0 0 1 4.3 0 3.583 3.583 0 0 1 .9 2.4h-6.1z"/><path d="m194.3 31.2a4.714 4.714 0 0 0 -1.5-.6c-.6-.1-1.1-.3-1.7-.4l-1.3-.3c-.3-.1-.7-.2-1-.3-.2-.1-.5-.2-.6-.4a.844.844 0 0 1 -.2-.7 1.606 1.606 0 0 1 .5-1.1 2.276 2.276 0 0 1 1.6-.4c1.4 0 2.2.5 2.4 1.6h2.8a3.876 3.876 0 0 0 -1.5-2.6 6.094 6.094 0 0 0 -3.7-1 13.552 13.552 0 0 0 -2 .2 3.479 3.479 0 0 0 -1.5.7 2.94 2.94 0 0 0 -1 1.2 4.193 4.193 0 0 0 -.4 1.6 3.287 3.287 0 0 0 .4 1.7 3.46 3.46 0 0 0 1 1.1 3.506 3.506 0 0 0 1.4.6 8.469 8.469 0 0 0 1.7.4c.5.1.9.2 1.3.3.3.1.7.2 1 .3a1.47 1.47 0 0 1 .6.5.952.952 0 0 1 .2.7 1.425 1.425 0 0 1 -.6 1.2 2.9 2.9 0 0 1 -1.8.5 3.513 3.513 0 0 1 -2-.5 2.475 2.475 0 0 1 -1-1.6h-2.8a4.27 4.27 0 0 0 1.6 3 6.52 6.52 0 0 0 4.1 1.1 7.613 7.613 0 0 0 2.1-.3 5.094 5.094 0 0 0 1.7-.7 3.179 3.179 0 0 0 1.1-1.2 3.287 3.287 0 0 0 .4-1.7 3.662 3.662 0 0 0 -.4-1.8 1.622 1.622 0 0 0 -.9-1.1z"/><path d="m206.7 32.3a3.566 3.566 0 0 0 -1-1.1 4.714 4.714 0 0 0 -1.5-.6c-.6-.1-1.1-.3-1.7-.4l-1.3-.3c-.3-.1-.7-.2-1-.3-.2-.1-.5-.2-.6-.4a.844.844 0 0 1 -.2-.7 1.606 1.606 0 0 1 .5-1.1 2.276 2.276 0 0 1 1.6-.4c1.4 0 2.2.5 2.4 1.6h2.8a3.876 3.876 0 0 0 -1.5-2.6 6.094 6.094 0 0 0 -3.7-1 13.552 13.552 0 0 0 -2 .2 3.479 3.479 0 0 0 -1.5.7 2.94 2.94 0 0 0 -1 1.2 4.193 4.193 0 0 0 -.4 1.6 3.287 3.287 0 0 0 .4 1.7 3.46 3.46 0 0 0 1 1.1 3.506 3.506 0 0 0 1.4.6 8.469 8.469 0 0 0 1.7.4c.5.1.9.2 1.3.3.3.1.7.2 1 .3a1.47 1.47 0 0 1 .6.5.952.952 0 0 1 .2.7 1.425 1.425 0 0 1 -.6 1.2 2.9 2.9 0 0 1 -1.8.5 3.513 3.513 0 0 1 -2-.5 2.475 2.475 0 0 1 -1-1.6h-2.8a4.27 4.27 0 0 0 1.6 3 6.52 6.52 0 0 0 4.1 1.1 7.613 7.613 0 0 0 2.1-.3 5.094 5.094 0 0 0 1.7-.7 3.179 3.179 0 0 0 1.1-1.2 3.287 3.287 0 0 0 .4-1.7 2.885 2.885 0 0 0 -.3-1.8z"/></g></svg>