<svg height="38" viewBox="0 0 105 38" width="105" xmlns="http://www.w3.org/2000/svg"><path d="m0 0h105v38h-105z" fill="none"/><path d="m6.72.336a5.81 5.81 0 0 0 4.728-1.944 5.391 5.391 0 0 0 1.128-3.6v-12.648h-4.1v12.556c0 1.44-.624 2.256-1.992 2.256-1.344 0-2.112-.672-2.112-2.448v-1.276h-3.772v1.368c0 3.528 2.04 5.736 6.12 5.736zm14.592.072a6.49 6.49 0 0 0 6.72-6.768 6.477 6.477 0 0 0 -6.72-6.768 6.5 6.5 0 0 0 -6.768 6.768 6.515 6.515 0 0 0 6.768 6.768zm-.024-2.736c-1.92 0-2.928-1.632-2.928-4.032 0-2.424 1.008-4.08 2.928-4.08 1.872 0 2.928 1.656 2.928 4.08 0 2.4-1.056 4.032-2.928 4.032zm20.52 2.328v-12.768h-3.72v7.224a2.466 2.466 0 0 1 -2.448 2.736c-1.344 0-2.04-.816-2.04-2.232v-7.728h-3.768v8.448c0 2.808 1.584 4.68 4.488 4.68a4.152 4.152 0 0 0 3.84-2.184h.072v1.824zm6.12-12.768h-3.628v12.768h3.768v-5.928c0-2.5 1.344-3.768 3.384-3.744a4.419 4.419 0 0 1 .792.072h.1v-3.288a2.2 2.2 0 0 0 -.792-.1 3.659 3.659 0 0 0 -3.552 2.5h-.072zm9.864 0h-3.648v12.768h3.768v-7.2a2.53 2.53 0 0 1 2.448-2.808 2.06 2.06 0 0 1 2.14 2.328v7.68h3.74v-8.4c0-2.856-1.632-4.728-4.44-4.728a4.145 4.145 0 0 0 -3.936 2.3h-.072zm19.032 12.768h3.676v-.216c-.336-.216-.48-.768-.48-1.776v-6.552a4.088 4.088 0 0 0 -1.944-3.816 7.032 7.032 0 0 0 -3.672-.768c-3.792 0-5.568 2.04-5.664 4.224h3.48c.1-1.008.792-1.68 2.232-1.68 1.3 0 1.9.624 1.9 1.536 0 .96-.936 1.32-3.216 1.632-2.784.336-5.016 1.056-5.016 3.888 0 2.52 1.848 3.864 4.368 3.864a4.243 4.243 0 0 0 3.864-1.9h.048a3.708 3.708 0 0 0 .424 1.564zm-3.168-2.136c-1.032 0-1.872-.408-1.872-1.512s.792-1.512 2.448-1.872a7.948 7.948 0 0 0 2.208-.72v1.656a2.523 2.523 0 0 1 -2.784 2.448zm8.952 2.136h3.792v-17.856h-3.792zm11.616.408c3.312 0 5.76-1.44 5.76-4.2 0-3.216-2.592-3.816-4.872-4.224-1.752-.312-3.144-.456-3.144-1.416 0-.816.744-1.3 1.9-1.3q1.8 0 2.16 1.368h3.5c-.336-2.232-2.112-3.768-5.664-3.768-3 0-5.376 1.368-5.376 3.984 0 2.976 2.3 3.552 4.584 3.984 1.776.336 3.288.48 3.288 1.632 0 .912-.768 1.464-2.112 1.464a2.312 2.312 0 0 1 -2.592-1.872h-3.556c.2 2.572 2.428 4.348 6.124 4.348z" transform="translate(2 28)"/></svg>