<svg xmlns="http://www.w3.org/2000/svg" width="17.643" height="17.643" viewBox="0 0 17.643 17.643"><path data-name="Path 1077" d="M10.818 10.829a4.583 4.583 0 001.4-3.361 4.575 4.575 0 00-1.4-3.359 4.575 4.575 0 00-3.356-1.394 4.575 4.575 0 00-3.353 1.394 4.575 4.575 0 00-1.391 3.356 4.575 4.575 0 001.391 3.355 4.575 4.575 0 003.356 1.394 4.566 4.566 0 003.353-1.385zm6.828 5.46a1.3 1.3 0 01-.4.954 1.3 1.3 0 01-.954.4 1.26 1.26 0 01-.954-.4l-3.643-3.629a7.26 7.26 0 01-4.231 1.315 7.335 7.335 0 01-2.9-.588 7.463 7.463 0 01-2.386-1.59 7.463 7.463 0 01-1.59-2.386A7.335 7.335 0 010 7.465a7.335 7.335 0 01.588-2.9 7.463 7.463 0 011.59-2.386A7.463 7.463 0 014.564.589a7.335 7.335 0 012.9-.588 7.335 7.335 0 012.9.588 7.463 7.463 0 012.386 1.59 7.463 7.463 0 011.59 2.386 7.334 7.334 0 01.588 2.9 7.26 7.26 0 01-1.31 4.23l3.633 3.634a1.3 1.3 0 01.392.957z" fill="#006eb2"/></svg>